<?xml version="1.0" encoding="UTF-8" standalone="no"?>
<svg
   xmlns:dc="http://purl.org/dc/elements/1.1/"
   xmlns:cc="http://creativecommons.org/ns#"
   xmlns:rdf="http://www.w3.org/1999/02/22-rdf-syntax-ns#"
   xmlns:svg="http://www.w3.org/2000/svg"
   xmlns="http://www.w3.org/2000/svg"
   xmlns:sodipodi="http://sodipodi.sourceforge.net/DTD/sodipodi-0.dtd"
   xmlns:inkscape="http://www.inkscape.org/namespaces/inkscape"
   version="1.1"
   id="Layer_1"
   x="0px"
   y="0px"
   width="30px"
   height="30px"
   viewBox="0 0 30 30"
   enable-background="new 0 0 30 30"
   xml:space="preserve"
   inkscape:version="0.91 r13725"
   sodipodi:docname="pattern-light.svg"><metadata
     id="metadata9"><rdf:RDF><cc:Work
         rdf:about=""><dc:format>image/svg+xml</dc:format><dc:type
           rdf:resource="http://purl.org/dc/dcmitype/StillImage" /></cc:Work></rdf:RDF></metadata><defs
     id="defs7" /><sodipodi:namedview
     pagecolor="#ffffff"
     bordercolor="#666666"
     borderopacity="1"
     objecttolerance="10"
     gridtolerance="10"
     guidetolerance="10"
     inkscape:pageopacity="0"
     inkscape:pageshadow="2"
     inkscape:window-width="1136"
     inkscape:window-height="652"
     id="namedview5"
     showgrid="false"
     inkscape:zoom="7.8666667"
     inkscape:cx="-3.8771186"
     inkscape:cy="15"
     inkscape:window-x="678"
     inkscape:window-y="82"
     inkscape:window-maximized="0"
     inkscape:current-layer="Layer_1" /><path
     fill="#FFFFFF"
     d="M0,15v-4L11,0h4L0,15z M10,0H6L0,6v4L10,0z M20,0h-4L0,16v4L20,0z M25,0h-4L0,21v4L25,0z M26,0L0,26v4L30,0  H26z M5,0H1L0,1v4L5,0z M5,30L30,5V1L1,30H5z M10,30l20-20V6L6,30H10z M15,30l15-15v-4L11,30H15z M20,30l10-10v-4L16,30H20z M25,30  l5-5v-4l-9,9H25z M30,30v-4l-4,4H30z"
     id="path3"
     style="fill:#565656;fill-opacity:0.65625" /></svg>