<?xml version="1.0" encoding="UTF-8" standalone="no"?>
<svg
   xmlns:dc="http://purl.org/dc/elements/1.1/"
   xmlns:cc="http://creativecommons.org/ns#"
   xmlns:rdf="http://www.w3.org/1999/02/22-rdf-syntax-ns#"
   xmlns:svg="http://www.w3.org/2000/svg"
   xmlns="http://www.w3.org/2000/svg"
   version="1.1"
   id="svg2"
   viewBox="0 0 64.610774 53.372823"
   height="15.062997mm"
   width="18.234596mm">
  <defs
     id="defs4" />
  <metadata
     id="metadata7">
    <rdf:RDF>
      <cc:Work
         rdf:about="">
        <dc:format>image/svg+xml</dc:format>
        <dc:type
           rdf:resource="http://purl.org/dc/dcmitype/StillImage" />
        <dc:title></dc:title>
      </cc:Work>
    </rdf:RDF>
  </metadata>
  <g
     transform="translate(-79.09059,-64.804084)"
     id="layer1">
    <g
       transform="translate(-40.911178,-6.9447987)"
       id="g4223">
      <path
         style="fill:#0d0f10;fill-opacity:1;fill-rule:evenodd;stroke:#000000;stroke-width:0.1;stroke-linecap:butt;stroke-linejoin:miter;stroke-miterlimit:4;stroke-dasharray:none;stroke-opacity:1"
         d="m 120.0523,125.07145 24.88905,-0.12627 0,-26.517894 -13.89345,0.252538 c 0,0 -0.30298,-6.948967 3.89345,-11.859681 4.19643,-4.910714 7.94643,-4.821429 7.94643,-4.821429 l -0.1894,-10.198377 c -7.66066,0.223793 -22.27439,9.644353 -22.36925,27.006075 z"
         id="path4219" />
      <path
         id="path4221"
         d="m 159.67349,125.07145 24.88905,-0.12627 0,-26.517894 -13.89345,0.252538 c 0,0 -0.30298,-6.948967 3.89345,-11.859681 4.19643,-4.910714 7.94643,-4.821429 7.94643,-4.821429 l -0.1894,-10.198377 c -7.66066,0.223793 -22.27439,9.644353 -22.36925,27.006075 z"
         style="fill:#0d0f10;fill-opacity:1;fill-rule:evenodd;stroke:#000000;stroke-width:0.1;stroke-linecap:butt;stroke-linejoin:miter;stroke-miterlimit:4;stroke-dasharray:none;stroke-opacity:1" />
    </g>
  </g>
</svg>
